<svg xmlns="http://www.w3.org/2000/svg"
    xmlns:xlink="http://www.w3.org/1999/xlink" viewBox="0 0 322.59 617.5">
    <defs>
        <style>.cls-1{fill:url(#linear-gradient);}.cls-2{fill:url(#linear-gradient-2);}.cls-3{fill:url(#linear-gradient-3);}</style>
        <linearGradient id="linear-gradient" x1="161.3" x2="161.3" y2="89.63" gradientUnits="userSpaceOnUse">
            <stop offset="0" stop-color="#f1b82d"/>
            <stop offset="1" stop-color="#c38e0d"/>
        </linearGradient>
        <linearGradient id="linear-gradient-2" x1="161.67" y1="97.5" x2="161.67" y2="617.5" xlink:href="#linear-gradient"/>
        <linearGradient id="linear-gradient-3" x1="161.3" x2="161.3" y2="617.5" xlink:href="#linear-gradient"/>
    </defs>
    <title>Asset 6</title>
    <g id="Layer_2" data-name="Layer 2">
        <g id="Layer_4" data-name="Layer 4">
            <path class="cls-1" d="M161.3,89.63c-41.42,0-80.46-3.84-109.92-10.82C16.81,70.63,0,59.51,0,44.82S16.81,19,51.38,10.82C80.84,3.84,119.88,0,161.3,0s80.45,3.84,109.92,10.82c34.57,8.19,51.37,19.31,51.37,34s-16.8,25.81-51.37,34C241.75,85.79,202.72,89.63,161.3,89.63Zm0-72.29C121.18,17.34,83.56,21,55.37,27.7c-31.26,7.4-38,15.51-38,17.12s6.77,9.71,38,17.12c28.19,6.67,65.81,10.35,105.93,10.35S239,68.61,267.22,61.94c31.26-7.41,38-15.51,38-17.12s-6.77-9.72-38-17.12C239,21,201.41,17.34,161.3,17.34Z"/>
            <path class="cls-2" d="M314.17,250c0-.28,0-.57,0-.85q0-6.21-.55-12.29-.58-6.77-1.74-13.36c-.29-1.68-.61-3.35-1-5-.64-3-1.36-6-2.18-9q-2-7.16-4.59-14a152.6,152.6,0,0,0-83.29-86.09q-5-2.1-10.09-3.84a151.8,151.8,0,0,0-41.59-7.89q-3.73-.18-7.5-.18-3.27,0-6.5.14a151.8,151.8,0,0,0-44.5,8.6q-4.85,1.73-9.53,3.75A152.59,152.59,0,0,0,19.2,195.5q-2.62,6.84-4.59,14c-.82,3-1.54,6-2.18,9-.35,1.65-.67,3.32-1,5a151.21,151.21,0,0,0-1.94,16q-.36,5.19-.36,10.47v56.5q0,3.53.19,7-.19,3.48-.19,7v143h0c0,.5,0,1,0,1.5q0,6.31.5,12.5.59,7.1,1.8,14,1.24,7.13,3.14,14a150.21,150.21,0,0,0,8.56,23.4V249.67a1.61,1.61,0,0,1-.28-.17l.29-.55h0A138.53,138.53,0,0,1,25.7,223.5H40c-.08.35-.15.7-.22,1.05h0a124.36,124.36,0,0,0-2.31,16.72h0c-.2,2.88-.3,5.79-.3,8.71V463.5h0c0,.5,0,1,0,1.5v88.08a152.26,152.26,0,0,0,14,17V250a110.21,110.21,0,0,1,3-25.54c.07-.32.15-.64.23-1H68.73a96.13,96.13,0,0,0-3.56,26v214h0c0,.5,0,1,0,1.5V583.08a152.62,152.62,0,0,0,14,10.2V379.91a125,125,0,0,0,14,20.66V463.5h0c0,.5,0,1,0,1.5V601.29q2.28,1.14,4.6,2.21a152.83,152.83,0,0,0,127.8,0q2.33-1.07,4.6-2.21a153.06,153.06,0,0,0,70-72.39,150.21,150.21,0,0,0,8.56-23.4q.78-2.81,1.44-5.67a152.63,152.63,0,0,0,4-34.83V320.5q0-3.53-.19-7,.19-3.48.19-7Zm-32.1-68.5H265.65a124.76,124.76,0,0,0-67.11-50.45,84.47,84.47,0,0,1,9.78-11.49A139,139,0,0,1,282.07,181.5Zm-98.87,0c0-.67,0-1.33,0-2a84.24,84.24,0,0,1,.48-9,81.7,81.7,0,0,1,24,11H189.17q-3,0-6,.14A.66.66,0,0,1,183.2,181.5Zm3.07-24.68a83.39,83.39,0,0,1,5-13.32,110.58,110.58,0,0,1,57.13,38H228.93A95.76,95.76,0,0,0,186.27,156.82Zm-17.1-45.12A137.86,137.86,0,0,1,196.92,116,84.38,84.38,0,0,0,186.34,128a124.37,124.37,0,0,0-17.17-2.23Zm-7.5,27.8a111.15,111.15,0,0,1,16.93,1.29,81.53,81.53,0,0,0-5.17,13.49A82.78,82.78,0,0,0,170.7,168a85.24,85.24,0,0,0-.53,9.51c0,1.34,0,2.68.1,4h-20.2c.07-1.32.1-2.66.1-4a86.16,86.16,0,0,0-.49-9.14A83.83,83.83,0,0,0,142,141.25,111.12,111.12,0,0,1,161.67,139.5Zm-6.5-27.85v14a124.39,124.39,0,0,0-20.77,2.83,84.74,84.74,0,0,0-10.3-11.84A138.39,138.39,0,0,1,155.17,111.65ZM135,171.92c-.08-1.21-.18-2.42-.31-3.61.13,1.19.24,2.4.31,3.61.13,1.84.19,3.7.19,5.58,0,1.34,0,2.68-.1,4H115.69A82.55,82.55,0,0,1,135,171.92ZM93.41,181.5H75a110.68,110.68,0,0,1,53.49-36.92,81.64,81.64,0,0,1,4.36,13.17A95.93,95.93,0,0,0,93.41,181.5Zm19.34-61.11a83.72,83.72,0,0,1,9,11.64,124.82,124.82,0,0,0-64.1,49.47H41.27A139,139,0,0,1,112.75,120.39ZM29.19,209.5a137.48,137.48,0,0,1,5.12-14H289a137.48,137.48,0,0,1,5.12,14ZM114,491.5a53.48,53.48,0,0,1-5.42-14h106.1a53.48,53.48,0,0,1-5.42,14Zm84.1,14a54.5,54.5,0,0,1-72.94,0Zm-91-42V414.84a125.14,125.14,0,0,0,24.4,16.63c9.4,4.89,20.6,11,30.1,11s20.7-6.1,30.1-11a125.14,125.14,0,0,0,24.4-16.63V465c0-.5,0-1,0-1.5Zm54.5,70a68.38,68.38,0,0,0,54.5-27v-1h.75a67.95,67.95,0,0,0,12.11-28h14.2a81.77,81.77,0,0,1-9.68,28q-1.58,2.81-3.38,5.48a82.49,82.49,0,0,1-123,15.95V506.5A68.38,68.38,0,0,0,161.67,533.5Zm68.48-70h0V400.57a125,125,0,0,0,14-20.66V465c0-.5,0-1,0-1.5h-14V465C230.17,464.5,230.16,464,230.15,463.5Zm-68.48,98a96.28,96.28,0,0,0,95.69-84h14.1a110.92,110.92,0,0,1-6.94,28,110.57,110.57,0,0,1-157.35,55.64V544.65A96.08,96.08,0,0,0,161.67,561.5Zm96.5-98V465c0-.5,0-1,0-1.5h0v-214c0-9-2.24-17.73-4.56-26H269c.08.32.16.64.23,1a110.21,110.21,0,0,1,3,25.54V465c0-.5,0-1,0-1.5Zm-165-76.93a125,125,0,0,1-14-20.66V250c0-1,0-2,.06-3h0a82.07,82.07,0,0,1,4.29-23.47h156.3A82.07,82.07,0,0,1,244.11,247h0c0,1,.06,2,.06,3V365.91a125,125,0,0,1-19.08,26.37q-4.25,4.5-8.92,8.56c-15.34,13.35-46,27.62-54.5,27.62s-39.16-14.27-54.5-27.62A125,125,0,0,1,93.17,386.57ZM297.64,491.5a137.75,137.75,0,0,1-11.47,34.23,139.2,139.2,0,0,1-56,59.67,138.76,138.76,0,0,1-123,7V577a124.45,124.45,0,0,0,123-8,125,125,0,0,0,42-46.57,123.68,123.68,0,0,0,7.26-16.91,124,124,0,0,0,6.12-28h14.06A137.09,137.09,0,0,1,297.64,491.5Zm2.53-26.5c0-.5,0-1,0-1.5h-14V465c0-.5,0-1,0-1.5h0V250c0-2.92-.1-5.83-.3-8.71h0a124.36,124.36,0,0,0-2.31-16.72h0c-.07-.35-.14-.7-.22-1.05h14.3a139,139,0,0,1,2.51,24.31c0,.38,0,.75,0,1.13h0c0,.35,0,.7,0,1.05Z"/>
            <path class="cls-3" d="M161.3,89.63c-41.42,0-80.46-3.84-109.92-10.82C16.81,70.63,0,59.51,0,44.82S16.81,19,51.38,10.82C80.84,3.84,119.88,0,161.3,0s80.45,3.84,109.92,10.82c34.57,8.19,51.37,19.31,51.37,34s-16.8,25.81-51.37,34C241.75,85.79,202.72,89.63,161.3,89.63Zm0-72.29C121.18,17.34,83.56,21,55.37,27.7c-31.26,7.4-38,15.51-38,17.12s6.77,9.71,38,17.12c28.19,6.67,65.81,10.35,105.93,10.35S239,68.61,267.22,61.94c31.26-7.41,38-15.51,38-17.12s-6.77-9.72-38-17.12C239,21,201.41,17.34,161.3,17.34Z"/>
            <path class="cls-3" d="M314.17,250c0-.28,0-.57,0-.85q0-6.21-.55-12.29-.58-6.77-1.74-13.36c-.29-1.68-.61-3.35-1-5-.64-3-1.36-6-2.18-9q-2-7.16-4.59-14a152.6,152.6,0,0,0-83.29-86.09q-5-2.1-10.09-3.84a151.8,151.8,0,0,0-41.59-7.89q-3.73-.18-7.5-.18-3.27,0-6.5.14a151.8,151.8,0,0,0-44.5,8.6q-4.85,1.73-9.53,3.75A152.59,152.59,0,0,0,19.2,195.5q-2.62,6.84-4.59,14c-.82,3-1.54,6-2.18,9-.35,1.65-.67,3.32-1,5a151.21,151.21,0,0,0-1.94,16q-.36,5.19-.36,10.47v56.5q0,3.53.19,7-.19,3.48-.19,7v143h0c0,.5,0,1,0,1.5q0,6.31.5,12.5.59,7.1,1.8,14,1.24,7.13,3.14,14a150.21,150.21,0,0,0,8.56,23.4V249.67a1.61,1.61,0,0,1-.28-.17l.29-.55h0A138.53,138.53,0,0,1,25.7,223.5H40c-.08.35-.15.7-.22,1.05h0a124.36,124.36,0,0,0-2.31,16.72h0c-.2,2.88-.3,5.79-.3,8.71V463.5h0c0,.5,0,1,0,1.5v88.08a152.26,152.26,0,0,0,14,17V250a110.21,110.21,0,0,1,3-25.54c.07-.32.15-.64.23-1H68.73a96.13,96.13,0,0,0-3.56,26v214h0c0,.5,0,1,0,1.5V583.08a152.62,152.62,0,0,0,14,10.2V379.91a125,125,0,0,0,14,20.66V463.5h0c0,.5,0,1,0,1.5V601.29q2.28,1.14,4.6,2.21a152.83,152.83,0,0,0,127.8,0q2.33-1.07,4.6-2.21a153.06,153.06,0,0,0,70-72.39,150.21,150.21,0,0,0,8.56-23.4q.78-2.81,1.44-5.67a152.63,152.63,0,0,0,4-34.83V320.5q0-3.53-.19-7,.19-3.48.19-7Zm-32.1-68.5H265.65a124.76,124.76,0,0,0-67.11-50.45,84.47,84.47,0,0,1,9.78-11.49A139,139,0,0,1,282.07,181.5Zm-98.87,0c0-.67,0-1.33,0-2a84.24,84.24,0,0,1,.48-9,81.7,81.7,0,0,1,24,11H189.17q-3,0-6,.14A.66.66,0,0,1,183.2,181.5Zm3.07-24.68a83.39,83.39,0,0,1,5-13.32,110.58,110.58,0,0,1,57.13,38H228.93A95.76,95.76,0,0,0,186.27,156.82Zm-17.1-45.12A137.86,137.86,0,0,1,196.92,116,84.38,84.38,0,0,0,186.34,128a124.37,124.37,0,0,0-17.17-2.23Zm-7.5,27.8a111.15,111.15,0,0,1,16.93,1.29,81.53,81.53,0,0,0-5.17,13.49A82.78,82.78,0,0,0,170.7,168a85.24,85.24,0,0,0-.53,9.51c0,1.34,0,2.68.1,4h-20.2c.07-1.32.1-2.66.1-4a86.16,86.16,0,0,0-.49-9.14A83.83,83.83,0,0,0,142,141.25,111.12,111.12,0,0,1,161.67,139.5Zm-6.5-27.85v14a124.39,124.39,0,0,0-20.77,2.83,84.74,84.74,0,0,0-10.3-11.84A138.39,138.39,0,0,1,155.17,111.65ZM135,171.92c-.08-1.21-.18-2.42-.31-3.61.13,1.19.24,2.4.31,3.61.13,1.84.19,3.7.19,5.58,0,1.34,0,2.68-.1,4H115.69A82.55,82.55,0,0,1,135,171.92ZM93.41,181.5H75a110.68,110.68,0,0,1,53.49-36.92,81.64,81.64,0,0,1,4.36,13.17A95.93,95.93,0,0,0,93.41,181.5Zm19.34-61.11a83.72,83.72,0,0,1,9,11.64,124.82,124.82,0,0,0-64.1,49.47H41.27A139,139,0,0,1,112.75,120.39ZM29.19,209.5a137.48,137.48,0,0,1,5.12-14H289a137.48,137.48,0,0,1,5.12,14ZM114,491.5a53.48,53.48,0,0,1-5.42-14h106.1a53.48,53.48,0,0,1-5.42,14Zm84.1,14a54.5,54.5,0,0,1-72.94,0Zm-91-42V414.84a125.14,125.14,0,0,0,24.4,16.63c9.4,4.89,20.6,11,30.1,11s20.7-6.1,30.1-11a125.14,125.14,0,0,0,24.4-16.63V465c0-.5,0-1,0-1.5Zm54.5,70a68.38,68.38,0,0,0,54.5-27v-1h.75a67.95,67.95,0,0,0,12.11-28h14.2a81.77,81.77,0,0,1-9.68,28q-1.58,2.81-3.38,5.48a82.49,82.49,0,0,1-123,15.95V506.5A68.38,68.38,0,0,0,161.67,533.5Zm68.48-70h0V400.57a125,125,0,0,0,14-20.66V465c0-.5,0-1,0-1.5h-14V465C230.17,464.5,230.16,464,230.15,463.5Zm-68.48,98a96.28,96.28,0,0,0,95.69-84h14.1a110.92,110.92,0,0,1-6.94,28,110.57,110.57,0,0,1-157.35,55.64V544.65A96.08,96.08,0,0,0,161.67,561.5Zm96.5-98V465c0-.5,0-1,0-1.5h0v-214c0-9-2.24-17.73-4.56-26H269c.08.32.16.64.23,1a110.21,110.21,0,0,1,3,25.54V465c0-.5,0-1,0-1.5Zm-165-76.93a125,125,0,0,1-14-20.66V250c0-1,0-2,.06-3h0a82.07,82.07,0,0,1,4.29-23.47h156.3A82.07,82.07,0,0,1,244.11,247h0c0,1,.06,2,.06,3V365.91a125,125,0,0,1-19.08,26.37q-4.25,4.5-8.92,8.56c-15.34,13.35-46,27.62-54.5,27.62s-39.16-14.27-54.5-27.62A125,125,0,0,1,93.17,386.57ZM297.64,491.5a137.75,137.75,0,0,1-11.47,34.23,139.2,139.2,0,0,1-56,59.67,138.76,138.76,0,0,1-123,7V577a124.45,124.45,0,0,0,123-8,125,125,0,0,0,42-46.57,123.68,123.68,0,0,0,7.26-16.91,124,124,0,0,0,6.12-28h14.06A137.09,137.09,0,0,1,297.64,491.5Zm2.53-26.5c0-.5,0-1,0-1.5h-14V465c0-.5,0-1,0-1.5h0V250c0-2.92-.1-5.83-.3-8.71h0a124.36,124.36,0,0,0-2.31-16.72h0c-.07-.35-.14-.7-.22-1.05h14.3a139,139,0,0,1,2.51,24.31c0,.38,0,.75,0,1.13h0c0,.35,0,.7,0,1.05Z"/>
        </g>
    </g>
</svg>